<?xml version="1.0" encoding="UTF-8"?>
<svg xmlns="http://www.w3.org/2000/svg" viewBox="0 0 64 64">
  <defs>
    <style>
      .cls-1 {
        fill: #696969;
      }
    </style>
  </defs>
  <g id="circle">
    <path class="cls-1" d="M31.94,6c7.37,0,13.46,2.49,18.61,7.61,2.42,2.42,4.29,5.22,5.54,8.32,1.27,3.14,1.91,6.52,1.91,10.07s-.63,6.97-1.88,10.07c-1.24,3.08-3.02,5.72-5.48,8.12-2.55,2.52-5.48,4.48-8.71,5.81-3.21,1.33-6.57,2-9.99,2s-6.67-.64-9.83-1.96c-3.12-1.31-5.98-3.24-8.47-5.74-2.49-2.49-4.41-5.33-5.7-8.43-1.31-3.14-1.94-6.37-1.94-9.87s.64-6.7,1.97-9.9c1.31-3.15,3.25-6.03,5.76-8.54l.02-.02.02-.02c4.97-5.06,10.91-7.52,18.17-7.52M31.94,0C23.07,0,15.58,3.11,9.49,9.31c-3.09,3.09-5.44,6.58-7.06,10.49C.81,23.71,0,27.77,0,32s.8,8.32,2.4,12.17c1.6,3.85,3.93,7.31,7,10.37,3.07,3.07,6.53,5.41,10.4,7.03,3.87,1.62,7.91,2.43,12.14,2.43s8.32-.82,12.28-2.46c3.96-1.64,7.51-4,10.63-7.09,3.01-2.93,5.29-6.31,6.83-10.14,1.54-3.83,2.31-7.93,2.31-12.31s-.78-8.45-2.34-12.31c-1.56-3.87-3.85-7.31-6.86-10.31C48.51,3.12,40.89,0,31.94,0h0Z"/>
  </g>
  <g id="cc">
    <path class="cls-1" d="M31.66,26.69l-4.29,2.23c-.46-.95-1.02-1.62-1.68-2-.67-.38-1.29-.57-1.86-.57-2.86,0-4.29,1.89-4.29,5.66,0,1.71.36,3.08,1.08,4.11.72,1.03,1.79,1.54,3.2,1.54,1.87,0,3.18-.92,3.94-2.74l3.94,2c-.84,1.56-2,2.79-3.49,3.69-1.48.9-3.12,1.34-4.91,1.34-2.86,0-5.16-.88-6.91-2.63-1.75-1.75-2.63-4.19-2.63-7.31s.89-5.47,2.66-7.26c1.77-1.79,4.01-2.69,6.72-2.69,3.96,0,6.8,1.54,8.51,4.63Z"/>
    <path class="cls-1" d="M50.11,26.69l-4.23,2.23c-.46-.95-1.02-1.62-1.69-2-.67-.38-1.31-.57-1.91-.57-2.86,0-4.29,1.89-4.29,5.66,0,1.71.36,3.08,1.09,4.11.72,1.03,1.79,1.54,3.2,1.54,1.87,0,3.18-.92,3.94-2.74l4,2c-.88,1.56-2.06,2.79-3.54,3.69-1.49.9-3.1,1.34-4.86,1.34-2.9,0-5.21-.88-6.94-2.63-1.74-1.75-2.6-4.19-2.6-7.31s.88-5.47,2.66-7.26c1.77-1.79,4.01-2.69,6.71-2.69,3.96,0,6.78,1.54,8.46,4.63Z"/>
  </g>
</svg>