<?xml version="1.0" encoding="UTF-8"?>
<svg id="nc" xmlns="http://www.w3.org/2000/svg" viewBox="0 0 64 64">
  <defs>
    <style>
      .cls-1 {
        fill: #696969;
      }
    </style>
  </defs>
  <path class="cls-1" d="M31.94,0C40.93,0,48.51,3.09,54.69,9.26c6.21,6.17,9.31,13.75,9.31,22.74s-3.05,16.48-9.15,22.46c-6.47,6.36-14.11,9.54-22.91,9.54s-16.19-3.16-22.51-9.49C3.14,48.23,0,40.73,0,32S3.14,15.66,9.43,9.26C15.6,3.09,23.1,0,31.94,0ZM7.2,23.37c-.95,2.63-1.43,5.5-1.43,8.63,0,7.09,2.59,13.22,7.77,18.4,5.22,5.14,11.39,7.72,18.51,7.72s13.41-2.61,18.63-7.83c1.87-1.79,3.33-3.66,4.4-5.6l-12.06-5.37c-.42,2.02-1.44,3.67-3.06,4.94-1.62,1.28-3.53,2.01-5.74,2.2v4.92h-3.71v-4.92c-3.54-.04-6.78-1.31-9.71-3.83l4.4-4.46c2.09,1.94,4.48,2.91,7.14,2.91,1.1,0,2.05-.25,2.83-.74.78-.49,1.17-1.31,1.17-2.46,0-.8-.29-1.45-.86-1.94l-3.08-1.32-3.77-1.72-5.09-2.23-16.34-7.31ZM32.06,5.72c-7.28,0-13.43,2.57-18.46,7.71-1.26,1.26-2.44,2.69-3.54,4.29l12.23,5.49c.53-1.68,1.54-3.02,3.03-4.03,1.48-1.01,3.22-1.57,5.2-1.69v-4.92h3.72v4.91c2.93.15,5.6,1.14,8,2.97l-4.17,4.29c-1.79-1.26-3.62-1.89-5.49-1.89-.99,0-1.88.19-2.66.57-.78.38-1.17,1.03-1.17,1.94,0,.27.1.53.28.8l4.06,1.83,2.8,1.26,5.14,2.28,16.4,7.31c.53-2.25.8-4.53.8-6.86,0-7.35-2.55-13.54-7.66-18.57-5.07-5.14-11.24-7.71-18.51-7.71Z"/>
</svg>