<?xml version="1.0" encoding="UTF-8"?>
<svg xmlns="http://www.w3.org/2000/svg" viewBox="0 0 64 64">
  <defs>
    <style>
      .cls-1 {
        fill: #696969;
      }
    </style>
  </defs>
  <g id="circle">
    <path class="cls-1" d="M31.94,6c7.37,0,13.46,2.49,18.61,7.61,2.42,2.42,4.29,5.22,5.54,8.32,1.27,3.14,1.91,6.52,1.91,10.07s-.63,6.97-1.88,10.07c-1.24,3.08-3.02,5.72-5.48,8.12-2.55,2.52-5.48,4.48-8.71,5.81-3.21,1.33-6.57,2-9.99,2s-6.67-.64-9.83-1.96c-3.12-1.31-5.98-3.24-8.47-5.74-2.49-2.49-4.41-5.33-5.7-8.43-1.31-3.14-1.94-6.37-1.94-9.87s.64-6.7,1.97-9.9c1.31-3.15,3.25-6.03,5.76-8.54l.02-.02.02-.02c4.97-5.06,10.91-7.52,18.17-7.52M31.94,0C23.07,0,15.58,3.11,9.49,9.31c-3.09,3.09-5.44,6.58-7.06,10.49C.81,23.71,0,27.77,0,32s.8,8.32,2.4,12.17c1.6,3.85,3.93,7.31,7,10.37,3.07,3.07,6.53,5.41,10.4,7.03,3.87,1.62,7.91,2.43,12.14,2.43s8.32-.82,12.28-2.46c3.96-1.64,7.51-4,10.63-7.09,3.01-2.93,5.29-6.31,6.83-10.14,1.54-3.83,2.31-7.93,2.31-12.31s-.78-8.45-2.34-12.31c-1.56-3.87-3.85-7.31-6.86-10.31C48.51,3.12,40.89,0,31.94,0h0Z"/>
  </g>
  <g id="sa">
    <path class="cls-1" d="M17.91,27.49c.61-3.92,2.19-6.96,4.74-9.11,2.55-2.15,5.66-3.23,9.31-3.23,5.03,0,9.03,1.62,12,4.86,2.97,3.24,4.46,7.39,4.46,12.46s-1.54,9-4.63,12.26c-3.09,3.26-7.09,4.89-12,4.89-3.62,0-6.74-1.08-9.37-3.26-2.63-2.17-4.21-5.26-4.74-9.26h8.06c.19,3.89,2.53,5.83,7.03,5.83,2.25,0,4.06-.97,5.43-2.91,1.37-1.94,2.06-4.53,2.06-7.77s-.63-5.97-1.88-7.74c-1.26-1.77-3.07-2.66-5.43-2.66-4.27,0-6.67,1.89-7.2,5.66h2.34l-6.34,6.34-6.34-6.34h2.51Z"/>
  </g>
</svg>