<?xml version="1.0" encoding="UTF-8"?>
<svg xmlns="http://www.w3.org/2000/svg" viewBox="0 0 64 64">
  <defs>
    <style>
      .cls-1 {
        fill: #696969;
      }
    </style>
  </defs>
  <g id="circle">
    <path class="cls-1" d="M31.94,6c7.37,0,13.46,2.49,18.61,7.61,2.42,2.42,4.29,5.22,5.54,8.32,1.27,3.14,1.91,6.52,1.91,10.07s-.63,6.97-1.88,10.07c-1.24,3.08-3.02,5.72-5.48,8.12-2.55,2.52-5.48,4.48-8.71,5.81-3.21,1.33-6.57,2-9.99,2s-6.67-.64-9.83-1.96c-3.12-1.31-5.98-3.24-8.47-5.74-2.49-2.49-4.41-5.33-5.7-8.43-1.31-3.14-1.94-6.37-1.94-9.87s.64-6.7,1.97-9.9c1.31-3.15,3.25-6.03,5.76-8.54l.02-.02.02-.02c4.97-5.06,10.91-7.52,18.17-7.52M31.94,0C23.07,0,15.58,3.11,9.49,9.31c-3.09,3.09-5.44,6.58-7.06,10.49C.81,23.71,0,27.77,0,32s.8,8.32,2.4,12.17c1.6,3.85,3.93,7.31,7,10.37,3.07,3.07,6.53,5.41,10.4,7.03,3.87,1.62,7.91,2.43,12.14,2.43s8.32-.82,12.28-2.46c3.96-1.64,7.51-4,10.63-7.09,3.01-2.93,5.29-6.31,6.83-10.14,1.54-3.83,2.31-7.93,2.31-12.31s-.78-8.45-2.34-12.31c-1.56-3.87-3.85-7.31-6.86-10.31C48.51,3.12,40.89,0,31.94,0h0Z"/>
  </g>
  <g id="by">
    <path class="cls-1" d="M40.63,24.06v13.08h-3.66v15.54h-9.94v-15.54h-3.66v-13.09c0-.57.2-1.06.6-1.46.4-.4.89-.6,1.46-.6h13.14c.53,0,1.01.2,1.43.6.42.4.63.89.63,1.46Z"/>
    <path class="cls-1" d="M27.54,15.83c0-3.01,1.49-4.51,4.46-4.51s4.46,1.5,4.46,4.51-1.49,4.46-4.46,4.46-4.46-1.49-4.46-4.46Z"/>
  </g>
</svg>